<svg xmlns="http://www.w3.org/2000/svg" width="1200" height="620" viewBox="0 0 1200 620" role="img" aria-label="User space dashboard">
  <defs>
    <linearGradient id="bg" x1="0" x2="1"><stop offset="0" stop-color="#f8fafc"/><stop offset="1" stop-color="#eef2ff"/></linearGradient>
    <linearGradient id="bar" x1="0" x2="1"><stop offset="0" stop-color="#38bdf8"/><stop offset="1" stop-color="#8b5cf6"/></linearGradient>
  </defs>
  <rect width="1200" height="620" rx="32" fill="url(#bg)"/>
  <text x="70" y="68" fill="#0f172a" font-family="Segoe UI, Arial" font-size="32" font-weight="850">User Space</text>
  <text x="260" y="68" fill="#64748b" font-family="Segoe UI, Arial" font-size="17">Tasks, assets, history and preferences</text>
  <rect x="70" y="108" width="290" height="190" rx="24" fill="#fff" stroke="#dbe3ef"/>
  <circle cx="122" cy="160" r="34" fill="#e0e7ff"/>
  <text x="172" y="154" fill="#111827" font-family="Segoe UI, Arial" font-size="22" font-weight="800">Current User</text>
  <text x="172" y="184" fill="#64748b" font-family="Segoe UI, Arial" font-size="15">Profile / role / login</text>
  <rect x="106" y="228" width="218" height="18" rx="9" fill="#e2e8f0"/>
  <rect x="106" y="256" width="160" height="18" rx="9" fill="#e2e8f0"/>
  <rect x="390" y="108" width="740" height="190" rx="24" fill="#fff" stroke="#dbe3ef"/>
  <text x="428" y="154" fill="#111827" font-family="Segoe UI, Arial" font-size="22" font-weight="800">Core Metrics</text>
  <g font-family="Segoe UI, Arial">
    <rect x="428" y="184" width="130" height="74" rx="18" fill="#f1f5f9"/>
    <text x="452" y="216" fill="#64748b" font-size="14">Tasks</text>
    <text x="452" y="246" fill="#0f172a" font-size="28" font-weight="850">38</text>
    <rect x="586" y="184" width="130" height="74" rx="18" fill="#f1f5f9"/>
    <text x="610" y="216" fill="#64748b" font-size="14">Exports</text>
    <text x="610" y="246" fill="#0f172a" font-size="28" font-weight="850">16</text>
    <rect x="744" y="184" width="130" height="74" rx="18" fill="#f1f5f9"/>
    <text x="768" y="216" fill="#64748b" font-size="14">Projects</text>
    <text x="768" y="246" fill="#0f172a" font-size="28" font-weight="850">9</text>
    <rect x="902" y="184" width="174" height="74" rx="18" fill="#eef2ff"/>
    <text x="926" y="216" fill="#64748b" font-size="14">Storage</text>
    <text x="926" y="246" fill="#0f172a" font-size="28" font-weight="850">6.3 GB</text>
  </g>
  <rect x="70" y="330" width="520" height="220" rx="24" fill="#fff" stroke="#dbe3ef"/>
  <text x="108" y="374" fill="#111827" font-family="Segoe UI, Arial" font-size="22" font-weight="800">7-Day Trend</text>
  <g fill="url(#bar)">
    <rect x="120" y="470" width="34" height="44" rx="10"/>
    <rect x="180" y="430" width="34" height="84" rx="10"/>
    <rect x="240" y="450" width="34" height="64" rx="10"/>
    <rect x="300" y="394" width="34" height="120" rx="10"/>
    <rect x="360" y="415" width="34" height="99" rx="10"/>
    <rect x="420" y="370" width="34" height="144" rx="10"/>
    <rect x="480" y="405" width="34" height="109" rx="10"/>
  </g>
  <rect x="626" y="330" width="504" height="220" rx="24" fill="#fff" stroke="#dbe3ef"/>
  <text x="664" y="374" fill="#111827" font-family="Segoe UI, Arial" font-size="22" font-weight="800">Resources & Tasks</text>
  <rect x="664" y="410" width="420" height="28" rx="14" fill="#e2e8f0"/>
  <rect x="664" y="454" width="360" height="28" rx="14" fill="#e2e8f0"/>
  <rect x="664" y="498" width="390" height="28" rx="14" fill="#e2e8f0"/>
</svg>
