<svg xmlns="http://www.w3.org/2000/svg" width="1200" height="680" viewBox="0 0 1200 680" role="img" aria-label="ColorChase workspace overview">
  <defs>
    <linearGradient id="bg" x1="0" x2="1" y1="0" y2="1">
      <stop offset="0" stop-color="#101827"/>
      <stop offset="1" stop-color="#1b1127"/>
    </linearGradient>
    <linearGradient id="accent" x1="0" x2="1">
      <stop offset="0" stop-color="#6ee7f9"/>
      <stop offset="1" stop-color="#a78bfa"/>
    </linearGradient>
    <filter id="shadow" x="-20%" y="-20%" width="140%" height="140%">
      <feDropShadow dx="0" dy="18" stdDeviation="18" flood-color="#000" flood-opacity="0.28"/>
    </filter>
  </defs>
  <rect width="1200" height="680" rx="36" fill="url(#bg)"/>
  <circle cx="1030" cy="80" r="150" fill="#7c3aed" opacity="0.18"/>
  <circle cx="120" cy="610" r="160" fill="#06b6d4" opacity="0.14"/>
  <rect x="46" y="42" width="1108" height="596" rx="28" fill="#0f172a" opacity="0.9" filter="url(#shadow)"/>
  <rect x="46" y="42" width="1108" height="70" rx="28" fill="#111827"/>
  <text x="84" y="86" fill="#f8fafc" font-family="Segoe UI, Arial" font-size="28" font-weight="700">ColorChase</text>
  <text x="268" y="86" fill="#94a3b8" font-family="Segoe UI, Arial" font-size="18">AI color transfer workspace</text>
  <rect x="940" y="62" width="170" height="32" rx="16" fill="url(#accent)" opacity="0.95"/>
  <text x="976" y="84" fill="#0f172a" font-family="Segoe UI, Arial" font-size="15" font-weight="700">Start Transfer</text>
  <rect x="76" y="142" width="210" height="466" rx="22" fill="#111827" stroke="#263248"/>
  <text x="104" y="178" fill="#e2e8f0" font-family="Segoe UI, Arial" font-size="18" font-weight="700">Project Assets</text>
  <rect x="104" y="210" width="154" height="84" rx="14" fill="#1e293b"/>
  <rect x="104" y="312" width="154" height="84" rx="14" fill="#1e293b"/>
  <rect x="104" y="414" width="154" height="84" rx="14" fill="#1e293b"/>
  <rect x="104" y="516" width="154" height="46" rx="14" fill="#273449"/>
  <text x="126" y="544" fill="#cbd5e1" font-family="Segoe UI, Arial" font-size="14">Upload Batch</text>
  <rect x="326" y="142" width="468" height="466" rx="24" fill="#0b1220" stroke="#263248"/>
  <text x="362" y="184" fill="#f8fafc" font-family="Segoe UI, Arial" font-size="22" font-weight="700">Before / After Preview</text>
  <rect x="362" y="216" width="190" height="300" rx="18" fill="#1f2937"/>
  <rect x="568" y="216" width="190" height="300" rx="18" fill="#251b35"/>
  <path d="M390 456 C430 350 470 380 520 280" stroke="#38bdf8" stroke-width="10" fill="none" opacity="0.65"/>
  <path d="M596 450 C642 330 684 372 732 270" stroke="#c084fc" stroke-width="10" fill="none" opacity="0.75"/>
  <rect x="390" y="540" width="310" height="22" rx="11" fill="#1e293b"/>
  <rect x="390" y="540" width="210" height="22" rx="11" fill="url(#accent)"/>
  <text x="362" y="566" fill="#94a3b8" font-family="Segoe UI, Arial" font-size="13">Intensity 68%</text>
  <rect x="826" y="142" width="298" height="466" rx="24" fill="#111827" stroke="#263248"/>
  <text x="862" y="184" fill="#f8fafc" font-family="Segoe UI, Arial" font-size="22" font-weight="700">Control Panel</text>
  <rect x="862" y="220" width="226" height="48" rx="14" fill="#1e293b"/>
  <text x="884" y="250" fill="#cbd5e1" font-family="Segoe UI, Arial" font-size="15">Algorithm: ModFlows</text>
  <rect x="862" y="290" width="226" height="48" rx="14" fill="#1e293b"/>
  <text x="884" y="320" fill="#cbd5e1" font-family="Segoe UI, Arial" font-size="15">Reference Style</text>
  <rect x="862" y="360" width="226" height="48" rx="14" fill="#1e293b"/>
  <text x="884" y="390" fill="#cbd5e1" font-family="Segoe UI, Arial" font-size="15">LUT Session</text>
  <rect x="862" y="456" width="226" height="70" rx="18" fill="url(#accent)"/>
  <text x="918" y="499" fill="#111827" font-family="Segoe UI, Arial" font-size="20" font-weight="800">Render Full</text>
</svg>
